<svg xmlns="http://www.w3.org/2000/svg" width="81.49" height="45.003" viewBox="0 0 81.49 45.003">
    <defs>
        <style>
            .cls-1{fill:#85a2b3}.cls-2{fill:#f6e699}
        </style>
    </defs>
    <g id="Balloons2" transform="translate(-.003 .003)">
        <g id="Capa_1" data-name="Capa 1" transform="translate(.003 -.003)">
            <g id="Group_591" data-name="Group 591">
                <g id="Group_323" data-name="Group 323" transform="translate(0 .428)">
                    <g id="Group_199" data-name="Group 199">
                        <path id="Path_318" d="M24.677 38.258a17.684 17.684 0 0 0 1.595 10.186c.385.822 2.036.551 2.362-.222 1.155-2.694 2.118-6.793 3.952-9.126 2.068-2.64 7.888-1.553 10.877-1.775 5.643-.421 12.384-.838 17.437-3.621a12.843 12.843 0 0 0 .746-22.057c-5.153-3.431-12.463-3.965-18.4-5.23-6.234-1.326-12.356-2.75-18.753-1.65C15.357 6.335 1.515 9.849.142 20.637-1.709 35.187 15.282 36.016 25.2 38.9c.955.279 2.864-1.085 1.432-1.5-5.786-1.683-12.275-1.7-17.6-4.74a12.332 12.332 0 0 1-4.9-16.817c3.533-6.1 13.754-8.321 20.28-9.471 7.836-1.384 15.774 1.187 23.38 2.828 6.636 1.428 14.2 2.7 16.769 9.837a11.325 11.325 0 0 1-.987 9.777C60.932 33.1 56 34.122 51.331 34.845a97.637 97.637 0 0 1-9.144.969c-2.74.164-5.928-.346-8.591.384-4.414 1.207-5.744 8.289-7.26 11.813l2.364-.221a16.8 16.8 0 0 1-1.574-9.767c.151-1.117-2.311-.755-2.446.229z" class="cls-1" data-name="Path 318" transform="translate(-.003 -4.37)"/>
                    </g>
                </g>
                <g id="Group_324" data-name="Group 324" transform="translate(63.328)">
                    <g id="Group_250" data-name="Group 250" transform="translate(10.121 5.642)">
                        <g id="Group_247" data-name="Group 247">
                            <g id="Group_246" data-name="Group 246">
                                <path id="Path_342" d="M770.192 66.089c1.88.714 4.1-1 4.509-2.837a5.142 5.142 0 0 0-2.431-5.194c-1.8-1.027-3.989.056-4.976 1.73-1.459 2.489.129 4.794 1.829 6.631.685.724 2.761-1.013 2.113-1.713a7.754 7.754 0 0 1-2.14-3.169c-.1-.381-.271-1.407.081-1.726.274-.25.671-.112 1.025.037a3.979 3.979 0 0 1 1.844 1.937c.234.469 1.03 2.787-.057 2.368-.883-.34-2.752 1.569-1.797 1.936z" class="cls-2" data-name="Path 342" transform="translate(-766.72 -57.657)"/>
                            </g>
                        </g>
                        <g id="Group_249" data-name="Group 249" transform="translate(3.399 6.862)">
                            <g id="Group_248" data-name="Group 248">
                                <path id="Path_343" d="M802.617 127.938c-.916.408-1.916 2.514-.306 1.8.924-.415 1.916-2.513.306-1.8z" class="cls-2" data-name="Path 343" transform="translate(-801.459 -127.791)"/>
                            </g>
                        </g>
                    </g>
                    <g id="Group_252" data-name="Group 252">
                        <g id="Group_247-2" data-name="Group 247-2">
                            <g id="Group_246-2" data-name="Group 246-2">
                                <path id="Path_342-2" d="M666.747 8.43c1.88.714 4.109-1 4.51-2.837A5.145 5.145 0 0 0 668.826.4c-1.8-1.027-3.99.056-4.976 1.731-1.46 2.489.129 4.794 1.828 6.63.685.724 2.761-1.012 2.113-1.712a7.773 7.773 0 0 1-2.142-3.168c-.1-.381-.27-1.407.082-1.727.273-.25.671-.111 1.024.038a3.979 3.979 0 0 1 1.845 1.934c.235.468 1.03 2.787-.057 2.368-.881-.339-2.751 1.57-1.796 1.936z" class="cls-2" data-name="Path 342-2" transform="translate(-663.276 .003)"/>
                            </g>
                        </g>
                        <g id="Group_249-2" data-name="Group 249-2" transform="translate(3.4 6.863)">
                            <g id="Group_248-2" data-name="Group 248-2">
                                <path id="Path_343-2" d="M699.185 70.286c-.916.407-1.916 2.514-.307 1.8.922-.414 1.917-2.517.307-1.8z" class="cls-2" data-name="Path 343-2" transform="translate(-698.026 -70.139)"/>
                            </g>
                        </g>
                    </g>
                    <g id="Group_251" data-name="Group 251" transform="translate(5.424 17.879)">
                        <g id="Group_247-3" data-name="Group 247-3">
                            <g id="Group_246-3" data-name="Group 246-3">
                                <path id="Path_342-3" d="M722.181 191.159c1.88.714 4.1-1 4.509-2.837a5.143 5.143 0 0 0-2.431-5.194c-1.8-1.027-3.989.056-4.976 1.73-1.459 2.489.129 4.794 1.828 6.631.685.724 2.762-1.013 2.114-1.712a7.757 7.757 0 0 1-2.139-3.17c-.1-.381-.271-1.407.081-1.726.274-.25.671-.112 1.025.038a3.972 3.972 0 0 1 1.844 1.936c.234.469 1.03 2.787-.057 2.368-.879-.34-2.753 1.569-1.798 1.936z" class="cls-2" data-name="Path 342-3" transform="translate(-718.71 -182.727)"/>
                            </g>
                        </g>
                        <g id="Group_249-3" data-name="Group 249-3" transform="translate(3.399 6.86)">
                            <g id="Group_248-3" data-name="Group 248-3">
                                <path id="Path_343-3" d="M754.605 252.988c-.916.408-1.916 2.514-.307 1.8.925-.415 1.917-2.52.307-1.8z" class="cls-2" data-name="Path 343-3" transform="translate(-753.446 -252.839)"/>
                            </g>
                        </g>
                    </g>
                </g>
            </g>
        </g>
    </g>
</svg>
